<?xml version="1.0" encoding="utf-8"?>
<!-- * * * * * * * * * * * * * * * * * * * * * * * * * * * *

	Сделано сделано специально для проекта Plugify and untrustedmodders
	Сайт проекта: https://github.com/untrustedmodders
	Автор: Fr4nch
	
	=============== Контакты автора ===============
	Telegram: https://t.me/fr0nch
	Discord: fr4nch_ (ID: 244718631148060675)
	
	ВСЕ ПРАВА ПРЕДНАЛЕЖАТ UNTRUSTEDMODDERS и FR4NCH

 * * * * * * * * * * * * * * * * * * * * * * * * * * * * -->
<svg version="1.1" id="logo" xmlns="http://www.w3.org/2000/svg" xmlns:xlink="http://www.w3.org/1999/xlink" x="0px" y="0px"
	 width="1024px" height="291.5050049px" viewBox="0 0 1024 291.5050049" enable-background="new 0 0 1024 291.5050049"
	 xml:space="preserve">
<g id="plg">
	<!-- ВСЕ ПРАВА ПРЕДНАЛЕЖАТ UNTRUSTEDMODDERS и FR4NCH -->
	<path fill="#1F2123" d="M229.6018677,191.4815521l-7.6222687-7.6222687l64.7893219-64.7893219
		c6.3144531-6.314476,6.3144531-16.5523453,0-22.8668137l-7.6222839-7.6222763
		c-6.3145142-6.3145218-16.5523376-6.314476-22.8668213,0l-64.7893066,64.7893219l-53.3559113-53.3559113l64.7893219-64.7893219
		c6.3144684-6.3144741,6.3144684-16.5523453,0-22.8668175l-7.6222687-7.6222725
		c-6.3145294-6.3145208-16.5523529-6.3144741-22.8668213,0l-64.7893219,64.7893219l-7.6222687-7.6222763
		c-6.3145218-6.314518-16.5523453-6.3144722-22.8668213,0l-15.244545,15.244545
		c-6.3145218,6.3145218-6.3145218,16.5522995,0,22.8668213l7.6222687,7.6222687l-28.975193,40.8409882l100.6560059,31.9626923
		l-58.7363434,14.4653931l89.4640045,35.5258179l11.9256287-8.4608002l7.6222687,7.6222687
		c6.3144684,6.3144836,16.5522919,6.3145294,22.8668213,0l15.2445374-15.2445374
		C235.9163513,208.0338898,235.9163513,197.7960205,229.6018677,191.4815521z"/>
	<!-- ВСЕ ПРАВА ПРЕДНАЛЕЖАТ UNTRUSTEDMODDERS и FR4NCH -->
	<path fill="#1F2123" d="M10.1667566,191.3158569l-7.1847272,10.1269989
		c-4.5623379,6.430603-3.8211851,15.2142181,1.7540903,20.7894897l13.2124825,13.2124786l3.8111362-3.8111267
		c6.3144741-6.3144836,16.5522957-6.3145294,22.8668175,0l15.244545,15.2445374
		c6.314476,6.3144684,6.314476,16.5523376,0,22.8668213l-3.8111382,3.8111267l13.212719,13.2127075
		c5.5752716,5.5752869,14.3588409,6.3164063,20.7894821,1.7541199l72.1244049-51.1699677L10.1667566,191.3158569z"/>
	<!-- ВСЕ ПРАВА ПРЕДНАЛЕЖАТ UNTRUSTEDMODDERS и FR4NCH -->
	<polygon fill="#1F2123" points="96.6658707,177.102066 36.470993,154.2395782 11.8447361,188.9507294 	"/>
</g>
<g id="plugify">
	<!-- ВСЕ ПРАВА ПРЕДНАЛЕЖАТ UNTRUSTEDMODDERS и FR4NCH -->
	<rect x="504.8595276" y="70.5564423" fill="#1F2123" width="22.9145546" height="136.0203552"/>
	<!-- ВСЕ ПРАВА ПРЕДНАЛЕЖАТ UNTRUSTEDMODDERS и FR4NCH -->
	<path fill="#1F2123" d="M629.6936035,108.6852112v49.496521c0,6.479538-1.1312866,11.9147797-3.3914185,16.3156891
		c-2.2625732,4.3984222-5.3780518,7.6978607-9.3488159,9.8983154c-3.9732666,2.2004547-8.647644,3.2994385-14.0231934,3.2994385
		c-7.3323975,0-12.9864502-2.1681366-16.9572144-6.5068817c-3.9732056-4.3362579-5.9573975-10.9077911-5.9573975-19.7071228
		v-52.7959595h-22.9145508v55.9114075c0,9.7789612,1.7703247,17.874649,5.315918,24.2895355
		c3.5430908,6.4173584,8.4935303,11.1837616,14.8486938,14.2992096c6.3527222,3.115448,13.6851196,4.674408,21.9970703,4.674408
		c7.5760498,0,14.5429077-1.6783142,20.8981323-5.0399017c4.2454834-2.2466125,7.7485352-5.2234344,10.6317749-8.8070984v12.5640259
		h21.8155518v-97.8915863H629.6936035z"/>
	<!-- ВСЕ ПРАВА ПРЕДНАЛЕЖАТ UNTRUSTEDMODDERS и FR4NCH -->
	<path fill="#1F2123" d="M758.0161133,108.6852112v13.0530701c-3.257019-3.8953934-7.0969238-6.9768066-11.5492554-9.2029037
		c-6.598877-3.2994308-14.055542-4.9491501-22.3650513-4.9491501c-9.2891846,0-17.6906738,1.9555435-25.2045288,5.865387
		c-7.5163574,3.9135742-13.4464111,9.4122238-17.7826538,16.4984283c-4.3387451,7.0899353-6.506897,15.3397675-6.506897,24.7482605
		c0,9.5328217,2.1681519,17.8448181,6.506897,24.931015c4.3362427,7.0886993,10.2662964,12.6209106,17.7826538,16.5891876
		c7.513855,3.9732513,15.9153442,5.9598694,25.2045288,5.9598694c8.3095093,0,15.7661743-1.6808014,22.3650513-5.0423889
		c3.9592896-2.0155334,7.4361572-4.7053375,10.4503174-8.0419159v5.1999664c0,9.9008026-2.5062866,17.3251648-7.5163574,22.2730713
		c-5.0125732,4.9503937-12.8969116,7.4243622-23.6480713,7.4243622c-6.7232056,0-13.3543701-1.07164-19.8911133-3.2074432
		c-6.5391846-2.1407776-11.9470825-4.9802399-16.2236938-8.5233459l-10.2637939,17.2306671
		c5.4974365,4.5202637,12.5562744,7.9738464,21.1716309,10.3583069c8.6152954,2.381958,17.444458,3.572937,26.4899292,3.572937
		c17.1088867,0,30.1847534-4.187088,39.2302856-12.5562592c9.0429688-8.3716736,13.5657349-21.4202423,13.5657349-39.1382446
		v-83.0428772H758.0161133z M753.5256958,169.2710266c-2.5062866,4.2169189-6.0220337,7.5163574-10.5422974,9.9008026
		c-4.5227051,2.381958-9.6546021,3.572937-15.3981934,3.572937c-5.7460327,0-10.9077759-1.190979-15.4901733-3.572937
		c-4.5823975-2.3844452-8.1279907-5.6838837-10.6317749-9.9008026c-2.5062866-4.2144165-3.7594604-9.0728302-3.7594604-14.5727234
		c0-5.4998779,1.2531738-10.3582916,3.7594604-14.5727081c2.5037842-4.2169189,6.0493774-7.4541931,10.6317749-9.7168121
		c4.5823975-2.2601318,9.7441406-3.3914337,15.4901733-3.3914337c5.7435913,0,10.8754883,1.1313019,15.3981934,3.3914337
		c4.5202637,2.262619,8.0360107,5.4998932,10.5422974,9.7168121c2.5013428,4.2144165,3.756958,9.0728302,3.756958,14.5727081
		C757.2826538,160.1981964,756.0270386,165.0566101,753.5256958,169.2710266z"/>
	<g>
		<!-- ВСЕ ПРАВА ПРЕДНАЛЕЖАТ UNTRUSTEDMODDERS и FR4NCH -->
		<rect x="809.8921509" y="108.6852112" fill="#1F2123" width="22.9145546" height="97.8915939"/>
		<!-- ВСЕ ПРАВА ПРЕДНАЛЕЖАТ UNTRUSTEDMODDERS и FR4NCH -->
		<path fill="#1F2123" d="M821.4414063,92.5535202c4.3984375,0,7.9415283-1.3749695,10.6317749-4.1236725
			c2.6853027-2.7499466,4.032959-6.1413803,4.032959-10.1743011c0-3.7867737-1.375-6.9345398-4.124939-9.4408188
			c-2.749939-2.5037918-6.265686-3.7581711-10.5397949-3.7581711c-4.2815552,0-7.7923584,1.3152924-10.5422974,3.9409256
			c-2.749939,2.6293488-4.1248779,5.8977127-4.1248779,9.8075562c0,3.7892532,1.374939,7.0290146,4.1248779,9.7155609
			C813.6490479,91.2108688,817.1598511,92.5535202,821.4414063,92.5535202z"/>
	</g>
	<!-- ВСЕ ПРАВА ПРЕДНАЛЕЖАТ UNTRUSTEDMODDERS и FR4NCH -->
	<path fill="#1F2123" d="M891.8310547,91.7292862c2.4416504-2.6268692,6.0493774-3.9409256,10.8157959-3.9409256
		c2.3198242,0,4.5823975,0.3369064,6.7828369,1.0082245c2.197998,0.6725693,4.1522827,1.6808014,5.8654175,3.0246964
		l6.2333984-17.2319183c-2.4466553-1.8337097-5.4725342-3.1763611-9.0753174-4.0329208
		c-3.6052856-0.8540726-7.4243774-1.2842178-11.4572754-1.2842178c-11.2459717,0-19.8886719,3.0880966-25.9380493,9.2580643
		c-6.0493774,6.1724625-9.0753174,14.3899765-9.0753174,24.6562729v6.232132h-16.1316528v18.3321381h16.1316528v78.8259659
		h22.9145508v-78.8259659h26.2139893v-18.3321381h-26.9474487v-5.865387
		C888.1636353,98.2995682,889.3844604,94.3586426,891.8310547,91.7292862z"/>
	<!-- ВСЕ ПРАВА ПРЕДНАЛЕЖАТ UNTRUSTEDMODDERS и FR4NCH -->
	<path fill="#1F2123" d="M1002.0004272,108.6852112l-30.989563,72.4121704l-30.7872314-72.4121704h-23.8320313l42.7954102,98.19664
		l-1.7327271,3.9118652c-2.197937,4.8857574-4.5823975,8.3691864-7.1483765,10.4477997
		c-2.565918,2.0761414-5.9299927,3.1179352-10.0822754,3.1179352c-3.0557861,0-6.0493774-0.6141357-8.9833374-1.8349609
		c-2.9314575-1.2232971-5.5620117-2.8717804-7.8818359-4.9479065l-9.1647949,16.8651733
		c3.1751099,2.8096161,7.1483154,5.0100708,11.9147339,6.598877c4.7664185,1.5863037,9.5328369,2.381958,14.2992554,2.381958
		c5.4998779,0,10.5397949-0.8553162,15.1221924-2.5659637c4.5823975-1.7131195,8.7371826-4.7067261,12.4667358-8.9833069
		c3.7271118-4.2790833,7.1185303-10.0823059,10.1743164-17.4146729L1024,108.6852112H1002.0004272z"/>
	<!-- ВСЕ ПРАВА ПРЕДНАЛЕЖАТ UNTRUSTEDMODDERS и FR4NCH -->
	<path fill="#1F2123" d="M474.7966003,99.5203781c-4.4008789-6.8437805-10.664093-12.0987625-18.7896118-15.7661819
		c-8.1304932-3.6661835-17.8746643-5.4986496-29.2399292-5.4986496h-52.79599v128.3212585h23.8320313v-37.0297699v-20.1646118
		v-50.962265h27.8649597c10.5074768,0,18.4216614,2.1992111,23.7400513,6.598877
		c5.3158875,4.3996658,7.9738464,10.6964417,7.9738464,18.8816299c0,8.0658493-2.657959,14.3302994-7.9738464,18.7908859
		c-5.3183899,4.4630585-13.2325745,6.6908722-23.7400513,6.6908722l1.098999,20.1646118
		c11.3652649,0,21.109436-1.8324738,29.2399292-5.4998932c8.1255188-3.6649475,14.3887329-8.9186859,18.7896118-15.7661896
		c4.3984375-6.8425446,6.598877-14.9680634,6.598877-24.3802872
		C481.3954773,114.4921646,479.1950378,106.3654099,474.7966003,99.5203781z"/>
</g>
</svg>
