<?xml version="1.0" encoding="utf-8"?>
<!-- * * * * * * * * * * * * * * * * * * * * * * * * * * * *

	Сделано сделано специально для проекта Plugify and untrustedmodders
	Сайт проекта: https://github.com/untrustedmodders
	Автор: Fr4nch
	
	=============== Контакты автора ===============
	Telegram: https://t.me/fr0nch
	Discord: fr4nch_ (ID: 244718631148060675)
	
	ВСЕ ПРАВА ПРЕДНАЛЕЖАТ UNTRUSTEDMODDERS и FR4NCH

 * * * * * * * * * * * * * * * * * * * * * * * * * * * * -->
<svg version="1.1" id="logo" xmlns="http://www.w3.org/2000/svg" xmlns:xlink="http://www.w3.org/1999/xlink" x="0px" y="0px"
	 width="512px" height="512px" viewBox="0 0 512 512" enable-background="new 0 0 512 512" xml:space="preserve">
<g id="plug">
	<!-- ВСЕ ПРАВА ПРЕДНАЛЕЖАТ UNTRUSTEDMODDERS и FR4NCH -->
	<path fill="#1F2123" d="M333.7859192,298.4221497l-7.0710754-7.0710754l60.1040649-60.1040649
		c5.8578491-5.8578491,5.8578491-15.3553619,0-21.2132111l-7.0710754-7.0710602
		c-5.8578796-5.8578796-15.3553467-5.8578491-21.2131958,0l-60.1040649,60.1040649l-49.4974823-49.497467l60.1040802-60.1040802
		c5.8578491-5.8578339,5.8578491-15.3553619,0-21.2131958l-7.0710754-7.0710678
		c-5.8578796-5.8578873-15.3553467-5.8578415-21.2131958,0l-60.1040802,60.1040726l-7.0710602-7.0710602
		c-5.8578949-5.8578949-15.3553619-5.8578491-21.2132111,0l-14.1421356,14.1421356
		c-5.8578796,5.8578796-5.8578796,15.3553162,0,21.2131958l7.0710754,7.0710754l-26.8798523,37.8875732l93.3770599,29.6513062
		l-54.4888306,13.4193115l82.9944305,32.9567871l11.0632019-7.8489685l7.0710754,7.0710754
		c5.8578491,5.8578491,15.3553162,5.8578796,21.2131958,0l14.1421509-14.1421509
		C339.6437378,313.7775269,339.6437378,304.2799988,333.7859192,298.4221497z"/>
	<!-- ВСЕ ПРАВА ПРЕДНАЛЕЖАТ UNTRUSTEDMODDERS и FR4NCH -->
	<path fill="#1F2123" d="M130.2192535,298.2684326l-6.6651688,9.3946838
		c-4.2324142,5.9655457-3.5448532,14.1139832,1.627243,19.2860718l12.2570267,12.257019l3.5355225-3.5355225
		c5.8578491-5.8578491,15.3553314-5.8578796,21.2132111,0l14.1421356,14.1421509
		c5.8578491,5.8578186,5.8578491,15.3553467,0,21.2131958l-3.5355377,3.5355225l12.2572327,12.2572327
		c5.1721039,5.1721191,13.3204956,5.8596191,19.2861023,1.6272583l66.9087372-47.4696045L130.2192535,298.2684326z"/>
	<!-- ВСЕ ПРАВА ПРЕДНАЛЕЖАТ UNTRUSTEDMODDERS и FR4NCH -->
	<polygon fill="#1F2123" points="210.4631805,285.0825195 154.6212921,263.8733215 131.7758789,296.0743408 	"/>
</g>
</svg>
